<svg xmlns="http://www.w3.org/2000/svg">
  <style>:root svg:not(:target) { display: none; }</style>

  <svg viewBox="0 0 19 14" fill="none" id="input-email">
    <g id="icon_email">
      <g id="Group">
        <line id="Line 14" x1="0.65" y1="6" x2="0.65" y2="14" stroke="#222222" stroke-width="1.3"/>
        <line id="Line 15" x1="17.65" y1="6" x2="17.65" y2="14" stroke="#222222" stroke-width="1.3"/>
        <line id="Line 16" y1="13.35" x2="18" y2="13.35" stroke="#222222" stroke-width="1.3"/>
        <line id="Line 17" y1="1.35" x2="18" y2="1.35" stroke="#222222" stroke-width="1.3"/>
        <path id="Polygon 2" d="M17.35 3.1821L9.00002 9.67654L0.65 3.18209V1.65H3.5L9.00002 1.65H14H17.35V3.1821Z" stroke="#222222" stroke-width="1.3"/>
      </g>
    </g>
  </svg>

  <svg viewBox="0 0 21 20" fill="none" id="input-phone">
    <g id="phone-stroke 1">
      <path id="Vector" d="M10.0022 10H18.5041M18.5041 10L16.0036 7.5M18.5041 10L16.0036 12.5M8.50191 2.5V7.5H5.50124V12.5H8.50191V17.5H6.00135C4.50102 17.5 3.50079 16.5 3.50079 15V5C3.50079 3.5 4.50102 2.5 6.00135 2.5H8.50191Z" stroke="black" stroke-linecap="round" stroke-linejoin="round"/>
    </g>
  </svg>

</svg>
